{
.appVersion = "3151";
.formatVersion = 3;
DisplayStrings = (
"HHOHHOOHOO HHAHHOOAOO
HHBHHOOBOO HHCHHOOCOO
HHDHHOODOO HHEHHOOEOO
HHFHHOoFOO HHGHHOOGOO
HHIHHOOIOO HHJHHOOJOO
HHKHHOOKOO HHLHHOOLOO
HHMHHOOMOO HHNHHOONOO
HHPHHOOPOO HHQHHOOQOO
HHRHHOOROO HHSHHOOSOO
HHTHHOOTOO HHUHHOOUOO
HHVHHOOVOO HHWHHOOWO
HHXHHOOXOO HHYHHOOYOO
HHZHHOOZOO",
"roy thompson is /_part.bowl present",
it,
"/T.fina",
"r/E_J ect",
"/F.fina",
"/R.fina",
E,
"/T_H_E",
"/E.fina",
"/P.fina",
P,
in,
L,
"/L_A",
"/T_H.fina",
" ",
"/Z.fina"
);
axes = (
{
name = curvature;
tag = curv;
}
);
classes = (
{
automatic = 1;
code = "A B C D E F G H I J K L M N O P Q R S T U V W X Y Z A.fina B.fina C.fina D.fina E.fina F.fina G.fina H.fina I.fina J.fina K.fina L.fina M.fina N.fina O.fina P.fina Q.fina R.fina S.fina T.fina U.fina V.fina W.fina X.fina Y.fina Z.fina T_H T_H.002 T_H_E.002 T_H_E.003";
name = AllLetters;
},
{
code = "A B C D E F G H I J K L M N O P Q R S T U V W X Y Z
";
name = Medial;
},
{
code = "";
name = Initial;
},
{
code = "A.fina B.fina C.fina D.fina E.fina F.fina G.fina H.fina I.fina J.fina K.fina L.fina M.fina N.fina O.fina P.fina Q.fina R.fina S.fina T.fina U.fina V.fina W.fina X.fina Y.fina Z.fina
";
name = Final;
},
{
code = "A C G H L M Q S";
name = FInalable;
},
{
code = T_H_E.isol;
name = Isolated;
}
);
date = "2023-07-05 21:16:45 +0000";
familyName = "Chiaroscuro Slant";
featurePrefixes = (
{
automatic = 1;
code = "languagesystem DFLT dflt;
";
name = Languagesystems;
}
);
features = (
{
automatic = 1;
code = "feature fina;
feature calt;
feature isol;
";
tag = aalt;
},
{
code = "sub T H E by T_H_E;
sub T H by T_H;
";
tag = liga;
},
{
automatic = 1;
code = "sub A by A.fina;
sub B by B.fina;
sub C by C.fina;
sub D by D.fina;
sub E by E.fina;
sub F by F.fina;
sub G by G.fina;
sub H by H.fina;
sub I by I.fina;
sub J by J.fina;
sub K by K.fina;
sub L by L.fina;
sub M by M.fina;
sub N by N.fina;
sub O by O.fina;
sub P by P.fina;
sub Q by Q.fina;
sub R by R.fina;
sub S by S.fina;

glyphs = (
{
glyphname = A;
kernLeft = a;
kernRight = a;
lastChange = "2023-08-24 01:15:39 +0000";
layers = (
{
layerId = m01;
shapes = (
{
closed = 1;
nodes = (
(250,894,l),
(350,892,ls),
(480,889.5,o),
(524,865.5,o),
(535,812.5,cs),
(543,730.5,o),
(542.5,406.5,o),
(542.5,300,c),
(550,300,l),
(550,872.5,l),
(550,900,l),
(250,900,l)
);
},
{
piece = {
Diagonal = -100;
Rotate = 0;
};
pos = (-50,0);
ref = _part.stroke;
},
{
piece = {
length = 100;
};
pos = (100,0);
ref = _part.stemNeue.001;
}
);
width = 550;
}
);
unicode = (65,97);
},
{
glyphname = B;
kernLeft = a;
kernRight = o;
lastChange = "2023-08-23 20:43:27 +0000";
layers = (
{
layerId = m01;
shapes = (
{
closed = 1;
nodes = (
(325,567.5,l),
(674,414,o),
(682,412,o),
(700,354,cs),
(711.5,315.5,o),
(630.5,59,o),
(611,0,c),
(615,0,l),
(750,400,l),
(326.5,572,l)
);
},
{
closed = 1;
nodes = (
(300,895,l),
(525,893,ls),
(625,892,o),
(647.5,861,o),
(676,751,cs),
(686.5,710,o),
(695,674.5,o),
(702.5,645,cs),
(737.5,504,o),
(742.5,504,o),
(587.5,504,c),
(587.5,500,l),
(750,500,l),
(650,900,l),
(300,900,l)
);
},
{
closed = 1;
nodes = (
(550,0,l),
(550,5,l),
(125,5,o),
(107.5,4.5,o),
(165,174,cs),
(404.5,877.5,l),
(398.5,877.5,l),
(148,175.5,ls),
(97.5,34.5,o),
(50,5,o),
(0,5,c),
(0,0,l)
);
}
);
width = 750;
}
);
unicode = (66,98);
},
{
glyphname = C;
kernLeft = a;
kernRight = o;
lastChange = "2023-08-23 21:40:46 +0000";
layers = (
{
layerId = m01;
shapes = (
{
closed = 1;
nodes = (
(410,897,l),
(600.5,891,o),
(602.5,870,o),
(615,748.5,cs),
(621.5,684.5,o),
(620,650,o),
(620,600,c),
(625,600,l),
(625,900,l),
(410,900,l)
);
},
{
closed = 1;
nodes = (
(300,0,l),
(300,5,l),
(160,5,o),
(117,32,o),
(165,174,cs),
(411.5,900,l),
(405.5,900,l),
(148,175.5,ls),
(98,34.5,o),
(50,5,o),
(0,5,c),
(0,0,l)
);
},
{
closed = 1;
nodes = (
(564,275,l),
(521,156,ls),
(471,18,o),
(466,5,o),
(312.5,5,cs),
(302.5,5,o),
(235,5,o),
(235,5,c),
(235,0,l),
(480,0,l),
(569,275,l)
);
}
);
width = 625;
}
);
unicode = (67,99);
},
{
glyphname = D;
kernLeft = a;
kernRight = o;
lastChange = "2023-08-23 20:42:41 +0000";
layers = (
{
layerId = m01;
shapes = (
{
closed = 1;
nodes = (
(742,531.5,l),
(750,531.5,l),
(750,750,l),
(600,900,l),
(300,900,l),
(300,895,l),
(500,887.5,ls),
(625,884.5,o),
(732,720,o),
(742,670,c)
);
},
{
closed = 1;
nodes = (
(299.5,0,l),
(412,0,l),
(750,375,l),
(750,531.5,l),
(742,531.5,l),
(742,450.5,l),
(726,381,o),
(690,337.5,o),
(554,189,cs),
(500,130,o),
(357.5,5,o),
(210,5,c),
(210,0,l)
);
},
{
piece = {
bottomStress = 0;
};
pos = (100,0);
ref = _part.stemNeue.001;
}
);
width = 750;
}
);
unicode = (68,100);
},
{
glyphname = E;
kernLeft = a;
kernRight = e;
lastChange = "2023-08-24 02:16:10 +0000";
layers = (
{
layerId = m01;
shapes = (
{
closed = 1;
nodes = (
(250,895,l),
(454.5,892.5,ls),
(566.5,891,o),
(606.5,884,o),
(636.5,859,cs),
(664.5,835.5,o),
(670,773.5,o),
(670,650,c),
(675,650,l),
(675,900,l),
(250,900,l)
);
},
{
closed = 1;
nodes = (
(305,593.5,l),
(428,593.5,o),
(452.5,589,o),
(479,543,cs),
(492,520.5,o),
(494.5,494.5,o),
(497,457,c),
(500,457,l),
(500,600,l),
(305,600,l)
);
},
{
closed = 1;
nodes = (
(539,275,l),
(496,156,ls),
(446,18,o),
(441,5,o),
(287.5,5,cs),
(277.5,5,o),
(210,5,o),
(210,5,c),
(210,0,l),
(455,0,l),
(544,275,l)
);
},
{
pos = (100,0);
ref = _part.stemNeue.001;
}
);
width = 675;
}
);
unicode = (69,101);
},
{
glyphname = F;
kernLeft = a;
kernRight = f;
lastChange = "2023-08-24 02:16:27 +0000";
layers = (
{
layerId = m01;
shapes = (
{
closed = 1;
nodes = (
(305,593.5,l),
(478,593.5,o),
(527.5,589,o),
(554,543,cs),
(567,520.5,o),
(569.5,494.5,o),
(572,457,c),
(575,457,l),
(575,600,l),
(305,600,l)
);
},
{
pos = (100,0);
ref = _part.stemNeue.001;
},
{
closed = 1;
nodes = (
(250,895,l),
(529.5,892.5,ls),
(641.5,891.5,o),
(681.5,884,o),
(711.5,859,cs),
(739.5,835.5,o),
(745,773.5,o),
(745,650,c),
(750,650,l),
(750,900,l),
(250,900,l)
);
}
);
width = 750;
}
);
unicode = (70,102);
},
{
glyphname = G;
kernLeft = a;
kernRight = a;
lastChange = "2023-08-23 20:42:27 +0000";
layers = (
{
layerId = m01;
shapes = (
{
closed = 1;
nodes = (
(410,897,l),
(600.5,891,o),
(602.5,870,o),
(615,748.5,cs),
(621.5,684.5,o),
(620,650,o),
(620,600,c),
(625,600,l),
(625,900,l),
(410,900,l)
);
},
{
closed = 1;
nodes = (
(275.5,179.5,l),
(400.5,249.5,o),
(551,373,o),
(590,340,cs),
(619.5,315,o),
(621,201,o),
(621,76,c),
(625,76,l),
(625,414.5,l),
(275.5,182.5,l)
);
},
{
closed = 1;
nodes = (
(300,0,l),
(300,5,l),
(160,5,o),
(117,32,o),
(165,174,cs),
(411.5,900,l),
(405.5,900,l),
(148,175.5,ls),
(98,34.5,o),
(50,5,o),
(0,5,c),
(0,0,l)
);
}
);
width = 625;
}
);
unicode = (71,103);
},
{
glyphname = H;
kernLeft = a;
kernRight = a;
lastChange = "2023-08-23 22:50:18 +0000";
layers = (
{
layerId = m01;
shapes = (
{
closed = 1;
nodes = (
(650,75,l),
(642.5,75,l),
(636,827,l),
(635.5,887,o),
(602.5,897,o),
(552.5,897,c),
(552.5,900,l),
(636,900,l),
(650,900,l)
);
},
{
closed = 1;
nodes = (
(148,175.5,ls),
(97.5,33.5,o),
(50,5,o),
(0,5,c),
(0,0,l),
(210,0,l),
(210,5,l),
(160,5,o),
(117,32,o),
(165,174,cs),
(411.5,900,l),
(237.5,900,l),
(237.5,895,l),
(312.5,893,ls),
(387.5,891,o),
(359.5,770,o),
(337,706.5,cs)
);
},
{
closed = 1;
nodes = (
(638,500,l),
(638,587.5,o),
(626.5,595,o),
(342.5,595,c),
(345,600,l),
(638.5,600,l)
);
}
);
width = 650;
}
);
unicode = (72,104);
},
{
glyphname = I;
kernLeft = i;
kernRight = i;
lastChange = "2023-08-24 02:17:09 +0000";
layers = (
{
layerId = m01;
shapes = (
{
closed = 1;
nodes = (
(198,175.5,ls),
(147.5,33,o),
(94.5,5,o),
(0,5,c),
(0,0,l),
(275,0,l),
(275,5,l),
(200,5,o),
(167,32,o),
(215,174,cs),
(436,824.5,ls),
(451.5,869.5,o),
(474,895,o),
(575,895,cs),
(600,895,l),
(600,900,l),
(362.5,900,l),
(362.5,895,l),
(375,894,ls),
(457,887.5,o),
(432,832,o),
(412.5,777.5,cs)
);
}
);
width = 600;
}
);
unicode = (73,105);
},
{
glyphname = J;
kernLeft = j;
kernRight = j;
lastChange = "2023-08-24 01:19:01 +0000";
layers = (
{
layerId = m01;
shapes = (
{
closed = 1;
nodes = (
(300,5,l),
(350,5,o),
(391,16.5,o),
(436,141.5,c),
(385,0,l),
(75,0,l),
(0,200,l),
(3.5,202.5,l),
(81,23.5,o),
(97,5,o),
(250,5,c)
);
},
{
closed = 1;
nodes = (
(407.5,0,l),
(712.5,900,l),
(380,900,l),
(380,895,l),
(475,895,l),
(675,895,o),
(697.5,867.5,o),
(610,625,cs),
(385,0,l)
);
}
);
width = 712.5;
}
);
unicode = (74,106);
},
{
glyphname = K;
kernLeft = a;
kernRight = a;
lastChange = "2023-08-23 20:35:54 +0000";
layers = (
{
layerId = m01;
shapes = (
{
closed = 1;
nodes = (
(350,550,l),
(521,550,ls),
(671.5,550,o),
(679.5,472,o),
(684.5,412,cs),
(694.5,292,o),
(695,245,o),
(695,145,c),
(700,145,l),
(700,555,l),
(350,555,l)
);
},
{
closed = 1;
nodes = (
(362.5,555,l),
(400,611.5,o),
(582,803.5,o),
(700,900,c),
(625,900,l),
(350,555,l)
);
},
{
piece = {
length = 110;
};
pos = (100,0);
ref = _part.stemNeue.002;
}
);
width = 700;
}
);
unicode = (75,107);
},
{
glyphname = L;
kernLeft = a;
kernRight = l;
lastChange = "2023-08-23 20:40:26 +0000";
layers = (
{
layerId = m01;
shapes = (
{
closed = 1;
nodes = (
(423,5,o),
(465.5,22.5,o),
(612.5,300,c),
(616,297.5,l),
(465.5,0,l),
(210,0,l),
(210,5,l),
(290.5,5,l)
);
},
{
closed = 1;
nodes = (
(148,175.5,ls),
(97.5,33,o),
(50,5,o),
(0,5,c),
(0,0,l),
(210,0,l),
(210,5,l),
(160,5,o),
(117,32,o),
(165,174,cs),
(411.5,900,l),
(245,900,l),
(245,895,l),
(250,895,ls),
(400,895,o),
(382,832,o),
(362.5,777.5,cs)
);
}
);
width = 616;
}
);
unicode = (76,108);
},
{
glyphname = M;
kernLeft = a;
kernRight = a;
lastChange = "2023-08-23 20:37:39 +0000";
layers = (
{
layerId = m01;
shapes = (
{
closed = 1;
nodes = (
(300,900,l),
(300,895,l),
(450,895,o),
(458,810,o),
(460,750,cs),
(464,630,o),
(465,175,o),
(465,25,c),
(475,25,l),
(709,775,l),
(706.5,775,l),
(575,412.5,ls),
(559,368,o),
(475,102,o),
(475,240,c),
(475,900,l)
);
},
{
closed = 1;
nodes = (
(627,900,l),
(627,895,l),
(785,895,o),
(783,810,o),
(785,750,cs),
(789,630,o),
(795,375,o),
(795,225,c),
(800,225,l),
(800,900,l)
);
},
{
piece = {
length = 90;
};
pos = (100,0);
ref = _part.stemNeue.001;
}
);
width = 800;
}
);
unicode = (77,109);
},
{
glyphname = N;
kernLeft = a;
kernRight = a;
lastChange = "2023-08-24 02:16:49 +0000";
layers = (
{
layerId = m01;
shapes = (
{
closed = 1;
nodes = (
(244.5,900,l),
(244.5,895,l),
(406.5,895,o),
(425,843.5,o),
(462.5,791.5,cs),
(503.5,734.5,o),
(643.5,489,o),
(680,387.5,cs),
(713,296.5,o),
(720,263,o),
(720,74,c),
(725,74,l),
(725,400,l),
(420,900,l)
);
},
{
closed = 1;
nodes = (
(550,900,l),
(550,895,l),
(712,895,o),
(706,855,o),
(710,825,cs),
(718,765,o),
(720,526,o),
(720,475,c),
(725,475,l),
(725,900,l)
);
},
{
piece = {
length = 87.5;
};
pos = (100,0);
ref = _part.stemNeue.001;
}
);
width = 725;
}
);
unicode = (78,110);
},
{
glyphname = O;
kernLeft = o;
kernRight = o;
lastChange = "2023-08-24 01:19:41 +0000";
layers = (
{
layerId = m01;
shapes = (
{
closed = 1;
nodes = (
(700.5,900.5,l),
(700,531.5,l),
(695,531.5,l),
(695,700,ls),
(695,823.5,o),
(664,895,o),
(562.5,895,cs),
(474,895,ls),
(424,895,o),
(397,857.5,o),
(373.5,788,cs),
(165,174,ls),
(118,36,o),
(160,5,o),
(210,5,c),
(247,5,l),
(344.5,5,o),
(435,120.5,o),
(492,175.5,cs),
(647.5,326.5,o),
(695,383.5,o),
(695,531.5,c),
(700,531.5,l),
(700,349.5,l),
(337,0,l),
(0,0,l),
(0,5,l),
(50,5,o),
(97.5,34.5,o),
(148,175.5,cs),
(406.5,900,l)
);
}
);
width = 700.5;
}
);
unicode = (79,111);
},
{
glyphname = P;
kernLeft = a;
kernRight = o;
lastChange = "2023-08-24 01:33:56 +0000";
layers = (
{
layerId = m01;
shapes = (
{
closed = 1;
nodes = (
(262.5,894,l),
(475,892,ls),
(625,890.5,o),
(661.5,809.5,o),
(661.5,750,cs),
(662,600,ls),
(662,512.5,o),
(619,488.5,o),
(320,362.5,c),
(321.5,358.5,l),
(675,500,l),
(675,900,l),
(262.5,900,l)
);
},
{
pos = (100,0);
ref = _part.stemNeue.001;
}
);
width = 675;
}
);
unicode = (80,112);
},
{
glyphname = Q;
kernLeft = a;
kernRight = a;
lastChange = "2023-08-23 20:40:03 +0000";
layers = (
{
layerId = m01;
shapes = (
{
closed = 1;
nodes = (
(375,389.5,l),
(495,139.5,o),
(525.5,20.5,o),
(460,10.5,cs),
(436.5,7,o),
(400,5,o),
(375,5,c),
(375,0,l),
(580.5,0,l),
(380,389.5,l)
);
},
{
piece = {
length = 110;
};
pos = (100,0);
ref = _part.stemNeue.001;
},
{
closed = 1;
nodes = (
(700.5,900.5,l),
(700,300,l),
(695,300,l),
(695,700,ls),
(695,823.5,o),
(664,895,o),
(562.5,895,cs),
(474,895,ls),
(424,895,o),
(397,857.5,o),
(373.5,788,c),
(411.5,900,l)
);
}
);
width = 700.5;
}
);
unicode = (81,113);
},
{
glyphname = R;
kernLeft = a;
kernRight = a;
lastChange = "2023-08-23 22:59:00 +0000";
layers = (
{
layerId = m01;
shapes = (
{
closed = 1;
nodes = (
(369.5,670,l),
(602.5,505.5,o),
(657,453,o),
(675,395,cs),
(682,372,o),
(693,134,o),
(695,75,c),
(700,75,l),
(700,450,l),
(372.5,677.5,l)
);
},
{
closed = 1;
nodes = (
(250,895,l),
(339,895,ls),
(389,895,o),
(475,895,o),
(525,895,cs),
(675,895,o),
(692.5,850,o),
(692.5,737.5,cs),
(692.5,645,ls),
(692.5,595,o),
(681,575,o),
(600,575,c),
(600,570,l),
(700,570,l),
(700,900,l),
(250,900,l)
);
},
{
pos = (100,0);
ref = _part.stemNeue.001;
}
);
width = 700;
}
);
unicode = (82,114);
},
{
glyphname = S;
kernLeft = a;
kernRight = a;
lastChange = "2023-08-23 20:37:51 +0000";
layers = (
{
layerId = m01;
shapes = (
{
piece = {
staffLength = 0;
staffWidth = 0;
};
pos = (50.5,0);
ref = _part.staff;
scale = (0.8325,1);
},
{
closed = 1;
nodes = (
(550,100,l),
(549.5,451,l),
(257.5,755,l),
(260,762.5,o),
(294,869.5,o),
(309,900,c),
(300,900,l),
(247.5,755,l),
(529.5,472.5,o),
(542.5,300,o),
(542.5,100,c)
);
},
{
closed = 1;
nodes = (
(285,0,l),
(285,5,l),
(160,5,o),
(117,31.5,o),
(165,174,cs),
(308.5,600,l),
(302.5,600,l),
(148,175.5,ls),
(97,35,o),
(50,5,o),
(0,5,c),
(0,0,l)
);
}
);
width = 550;
}
);
unicode = (83,115);
},
{
glyphname = T;
kernLeft = t;
kernRight = t;
lastChange = "2023-08-24 02:15:55 +0000";
layers = (
{
layerId = m01;
shapes = (
{
pos = (100,0);
ref = _part.stemNeue.001;
},
{
closed = 1;
nodes = (
(125,895,l),
(404.5,892.5,ls),
(516.5,891.5,o),
(556.5,884,o),
(586.5,859,cs),
(614.5,835.5,o),
(620,773.5,o),
(620,650,c),
(625,650,l),
(625,900,l),
(125,900,l)
);
}
);
width = 625;
}
);
unicode = (84,116);
},
{
glyphname = U;
kernLeft = a;
kernRight = o;
lastChange = "2023-08-23 20:37:58 +0000";
layers = (
{
layerId = m01;
shapes = (
{
closed = 1;
nodes = (
(717.5,531.5,l),
(725,531.5,l),
(725,900,l),
(575,900,l),
(575,895,l),
(625,893,ls),
(696.5,890,o),
(717.5,817,o),
(720,759.5,c)
);
},
{
closed = 1;
nodes = (
(249.5,0,l),
(362,0,l),
(725,349.5,l),
(725,531.5,l),
(717.5,531.5,l),
(717.5,456.5,o),
(706.5,339,o),
(562.5,202.5,cs),
(372.5,23,o),
(337.5,25,o),
(250,25,c),
(210,25,l),
(210,0,l)
);
},
{
closed = 1;
nodes = (
(148,175.5,ls),
(97.5,33,o),
(50,5,o),
(0,5,c),
(0,0,l),
(210,0,l),
(210,25,l),
(160,25,o),
(117,32,o),
(165,174,cs),
(411.5,900,l),
(300,900,l),
(300,895,l),
(337.5,893,ls),
(387.5,890.5,o),
(385,841,o),
(362.5,777.5,cs)
);
}
);
width = 725;
}
);
unicode = (85,117);
},
{
glyphname = V;
kernLeft = a;
kernRight = v;
lastChange = "2023-08-23 20:38:02 +0000";
layers = (
{
layerId = m01;
shapes = (
{
closed = 1;
nodes = (
(229.5,0,l),
(950,900,l),
(947.5,900,l),
(832.5,900,l),
(832.5,895,l),
(882.5,895,o),
(890.5,842.5,o),
(746.5,664.5,cs),
(225,20,l),
(161,50,o),
(145,115,o),
(202,286.5,c),
(103.5,0,l)
);
},
{
closed = 1;
nodes = (
(148,175.5,ls),
(97,32,o),
(50,5,o),
(0,5,c),
(0,0,l),
(210,0,l),
(210,5,l),
(160,5,o),
(117,32,o),
(165,174,cs),
(411.5,900,l),
(295,900,l),
(295,895,l),
(300,895,ls),
(393.5,895,o),
(381,830,o),
(298,597,cs)
);
}
);
width = 950;
}
);
unicode = (86,118);
},
{
glyphname = W;
kernLeft = a;
kernRight = v;
lastChange = "2023-08-23 20:44:38 +0000";
layers = (
{
hints = (
{
name = _corner.rightSerif;
options = 1;
origin = (0,2);
type = Corner;
}
);
layerId = m01;
shapes = (
{
closed = 1;
nodes = (
(229.5,0,l),
(775,900,l),
(765,900,l),
(225,25,l),
(176.5,25,o),
(120,49,o),
(183,227,c),
(87.5,0,l)
);
},
{
closed = 1;
nodes = (
(579.5,0,l),
(1150,900,l),
(912.5,900,l),
(912.5,895,l),
(1100,895,o),
(1118,873.5,o),
(1040,745.5,c),
(575,25,l),
(496,25,o),
(457.5,20,o),
(457.5,184.5,cs),
(457.5,262.5,l),
(450,262.5,l),
(450,0,l)
);
},
{
closed = 1;
nodes = (
(148,175.5,ls),
(97,32,o),
(50,5,o),
(0,5,c),
(0,0,l),
(210,0,l),
(210,5,l),
(160,5,o),
(117,32,o),
(165,174,cs),
(411.5,900,l),
(257.5,900,l),
(257.5,895,l),
(300,895,ls),
(355,895,o),
(395.5,871,o),
(298,597,cs)
);
}
);
width = 1150;
}
);
unicode = (87,119);
},
{
glyphname = X;
kernLeft = z;
kernRight = x;
lastChange = "2023-08-23 21:31:10 +0000";
layers = (
{
hints = (
{
name = _corner.leftSerif;
origin = (0,12);
type = Corner;
},
{
name = _corner.rightSerif;
options = 1;
origin = (0,13);
type = Corner;
}
);
layerId = m01;
shapes = (
{
closed = 1;
nodes = (
(721,750,l),
(721,900,l),
(575,900,l),
(575,895,l),
(625.5,893,ls),
(673,891,o),
(714.5,887.5,o),
(713.5,829.5,cs),
(713,791,ls),
(712.5,750,o),
(593,621.5,o),
(526,542.5,cs),
(66,0,l),
(86,0,l)
);
},
{
closed = 1;
nodes = (
(520,592,l),
(419.5,900,l),
(269.5,900,l),
(269.5,895,l),
(337,891.5,ls),
(397.5,888.5,o),
(435,810.5,o),
(456.5,750,c),
(514.5,586.5,l)
);
},
{
closed = 1;
nodes = (
(542,502.5,l),
(702,30,l),
(709.5,30,l),
(549,511.5,l)
);
}
);
width = 721;
}
);
unicode = (88,120);
},
{
glyphname = Y;
kernLeft = z;
kernRight = o;
lastChange = "2023-08-24 01:20:35 +0000";
layers = (
{
layerId = m01;
shapes = (
{
closed = 1;
nodes = (
(318.5,0,l),
(318.5,5,l),
(268.5,5,o),
(233.5,10.5,o),
(308,73.5,c),
(606.5,345.5,l),
(602.5,345.5,l),
(213,15.5,o),
(224.5,-3,o),
(0,5,c),
(0,0,l)
);
},
{
closed = 1;
nodes = (
(300,210,l),
(612.5,390,l),
(612.5,900,l),
(487.5,900,l),
(487.5,895,l),
(512.5,893,ls),
(587.5,887,o),
(606,880,o),
(605,780,cs),
(602.5,458,ls),
(602,423.5,o),
(574.5,391,o),
(545,372.5,cs),
(281,210,l)
);
},
{
closed = 1;
nodes = (
(297.5,210,l),
(305,218.5,l),
(180,218.5,o),
(177,274,o),
(242,464,cs),
(391,900,l),
(272.5,900,l),
(272.5,895,l),
(294,893,ls),
(362.5,886.5,o),
(378,877,o),
(332.5,750,cs),
(140,210,l)
);
}
);
width = 612.5;
}
);
unicode = (89,121);
},
{
glyphname = Z;
kernLeft = z;
kernRight = t;
lastChange = "2023-08-24 02:14:35 +0000";
layers = (
{
hints = (
{
name = _corner.leftSerif;
origin = (0,7);
type = Corner;
}
);
layerId = m01;
shapes = (
{
closed = 1;
nodes = (
(464,0,l),
(464,5,l),
(314,5,o),
(114,11.5,o),
(154,92.5,c),
(504,600,l),
(498,600,l),
(71.5,0,l)
);
},
{
closed = 1;
nodes = (
(562.5,680,l),
(725,900,l),
(247.5,900,l),
(175,700,l),
(180,700,l),
(205,756.5,ls),
(253.5,866.5,o),
(273,895,o),
(355,895,cs),
(517.5,895,ls),
(571,895,o),
(636,885.5,o),
(650,865,cs),
(672,831.5,o),
(626,787.5,o),
(557.5,680,c)
);
}
);
width = 725;
}
);
unicode = (90,122);
},
{
glyphname = R.001;
kernLeft = a;
kernRight = a;
layers = (
{
layerId = m01;
shapes = (
{
piece = {
Diagonal = 0;
Rotate = 0;
};
pos = (100,0);
ref = _part.stroke;
},
{
closed = 1;
nodes = (
(250,895,l),
(339,895,ls),
(389,895,o),
(450,894,o),
(500,893.5,cs),
(650,892,o),
(679.5,809.5,o),
(679.5,750,cs),
(679.5,726,o),
(680,704,o),
(680.5,684,c),
(686,534,o),
(635.5,505,o),
(585.5,505,c),
(585.5,500,l),
(685.5,500,l),
(700,500,l),
(700,900,l),
(250,900,l)
);
},
{
pos = (100,0);
ref = _part.stemNeue.001;
}
);
width = 700;
}
);
},
{
glyphname = A.fina;
kernLeft = a;
kernRight = a;
lastChange = "2023-08-23 20:59:02 +0000";
layers = (
{
layerId = m01;
shapes = (
{
closed = 1;
nodes = (
(250,894,l),
(350,892,ls),
(480,889.5,o),
(517,833,o),
(528,780,cs),
(536,698,o),
(542.5,406.5,o),
(542.5,300,c),
(550,300,l),
(550,872.5,l),
(550,900,l),
(250,900,l)
);
},
{
closed = 1;
nodes = (
(250,290,l),
(460,290,o),
(512,268,o),
(530,210,cs),
(537,187,o),
(546,135,o),
(546,76,cs),
(546,0,l),
(550,0,l),
(550,300,l),
(250,300,l)
);
},
{
closed = 1;
nodes = (
(210,0,l),
(210,5,l),
(160,5,o),
(116.5,32,o),
(165,174,cs),
(404.5,877.5,l),
(398.5,877.5,l),
(148,175.5,ls),
(97.5,34.5,o),
(50,5,o),
(0,5,c),
(0,0,l)
);
}
);
width = 550;
}
);
},
{
glyphname = B.fina;
kernLeft = a;
kernRight = o;
lastChange = "2023-08-23 20:59:11 +0000";
layers = (
{
layerId = m01;
shapes = (
{
closed = 1;
nodes = (
(325,567.5,l),
(674,414,o),
(682,412,o),
(700,354,cs),
(711.5,315.5,o),
(630.5,59,o),
(611,0,c),
(615,0,l),
(750,400,l),
(326.5,572,l)
);
},
{
closed = 1;
nodes = (
(300,895,l),
(525,893,ls),
(625,892,o),
(647.5,861,o),
(676,751,cs),
(686.5,710,o),
(695,674.5,o),
(702.5,645,cs),
(737.5,504,o),
(742.5,504,o),
(587.5,504,c),
(587.5,500,l),
(750,500,l),
(650,900,l),
(300,900,l)
);
},
{
closed = 1;
nodes = (
(550,0,l),
(550,5,l),
(125,5,o),
(107.5,4.5,o),
(165,174,cs),
(404.5,877.5,l),
(398.5,877.5,l),
(148,175.5,ls),
(97.5,34.5,o),
(50,5,o),
(0,5,c),
(0,0,l)
);
}
);
width = 750;
}
);
},
{
glyphname = C.fina;
kernLeft = a;
kernRight = o;
lastChange = "2023-08-23 21:38:04 +0000";
layers = (
{
layerId = m01;
shapes = (
{
closed = 1;
nodes = (
(410,897,l),
(600.5,891,o),
(602.5,870,o),
(615,748.5,cs),
(621.5,684.5,o),
(620,650,o),
(620,600,c),
(625,600,l),
(625,900,l),
(410,900,l)
);
},
{
closed = 1;
nodes = (
(331,0,l),
(331,5,l),
(191,5,o),
(117,32,o),
(165,174,cs),
(411.5,900,l),
(405.5,900,l),
(148,175.5,ls),
(98,34.5,o),
(50,5,o),
(0,5,c),
(0,0,l)
);
},
{
closed = 1;
nodes = (
(595,275,l),
(552,156,ls),
(502,18,o),
(497,5,o),
(343.5,5,cs),
(333.5,5,o),
(235,5,o),
(235,5,c),
(235,0,l),
(511,0,l),
(600,275,l)
);
}
);
width = 625;
}
);
},
{
glyphname = D.fina;
kernLeft = a;
kernRight = o;
lastChange = "2023-08-23 20:59:14 +0000";
layers = (
{
layerId = m01;
shapes = (
{
closed = 1;
nodes = (
(742,531.5,l),
(750,531.5,l),
(750,750,l),
(600,900,l),
(300,900,l),
(300,895,l),
(500,887.5,ls),
(625,884.5,o),
(732,720,o),
(742,670,c)
);
},
{
closed = 1;
nodes = (
(299.5,0,l),
(412,0,l),
(750,375,l),
(750,531.5,l),
(742,531.5,l),
(742,450.5,l),
(726,381,o),
(690,337.5,o),
(554,189,cs),
(500,130,o),
(357.5,5,o),
(210,5,c),
(210,0,l)
);
},
{
piece = {
bottomStress = 0;
};
pos = (100,0);
ref = _part.stemNeue.001;
}
);
width = 750;
}
);
},
{
glyphname = E.fina;
kernLeft = a;
kernRight = t;
lastChange = "2023-08-24 02:17:38 +0000";
layers = (
{
layerId = m01;
shapes = (
{
closed = 1;
nodes = (
(305,593.5,l),
(428,593.5,o),
(452.5,589,o),
(479,543,cs),
(492,520.5,o),
(494.5,494.5,o),
(497,457,c),
(500,457,l),
(500,600,l),
(305,600,l)
);
},
{
closed = 1;
nodes = (
(645,275,l),
(602,156,ls),
(552,18,o),
(547,5,o),
(393.5,5,cs),
(383.5,5,o),
(210,5,o),
(210,5,c),
(210,0,l),
(561,0,l),
(650,275,l)
);
},
{
pos = (100,0);
ref = _part.stemNeue.001;
},
{
closed = 1;
nodes = (
(250,895,l),
(454.5,892.5,ls),
(566.5,891,o),
(606.5,884,o),
(636.5,859,cs),
(664.5,835.5,o),
(670,773.5,o),
(670,650,c),
(675,650,l),
(675,900,l),
(250,900,l)
);
}
);
width = 675;
}
);
},
{
glyphname = F.fina;
kernLeft = a;
kernRight = t;
lastChange = "2023-08-24 02:17:44 +0000";
layers = (
{
layerId = m01;
shapes = (
{
closed = 1;
nodes = (
(305,593.5,l),
(478,593.5,o),
(527.5,589,o),
(554,543,cs),
(567,520.5,o),
(569.5,494.5,o),
(572,457,c),
(575,457,l),
(575,600,l),
(305,600,l)
);
},
{
pos = (100,0);
ref = _part.stemNeue.001;
},
{
closed = 1;
nodes = (
(250,895,l),
(529.5,892.5,ls),
(641.5,891.5,o),
(681.5,884,o),
(711.5,859,cs),
(739.5,835.5,o),
(745,773.5,o),
(745,650,c),
(750,650,l),
(750,900,l),
(250,900,l)
);
}
);
width = 750;
}
);
},
{
glyphname = G.fina;
kernLeft = a;
kernRight = a;
lastChange = "2023-08-23 21:04:42 +0000";
layers = (
{
layerId = m01;
shapes = (
{
closed = 1;
nodes = (
(410,897,l),
(600.5,891,o),
(602.5,870,o),
(615,748.5,cs),
(621.5,684.5,o),
(620,650,o),
(620,600,c),
(625,600,l),
(625,900,l),
(410,900,l)
);
},
{
closed = 1;
nodes = (
(275.5,179.5,l),
(400.5,249.5,o),
(551,373,o),
(590,340,cs),
(619.5,315,o),
(621,201,o),
(621,76,cs),
(621,0,l),
(625,0,l),
(625,414.5,l),
(275.5,182.5,l)
);
},
{
closed = 1;
nodes = (
(300,0,l),
(300,5,l),
(160,5,o),
(117,32,o),
(165,174,cs),
(411.5,900,l),
(405.5,900,l),
(148,175.5,ls),
(98,34.5,o),
(50,5,o),
(0,5,c),
(0,0,l)
);
}
);
width = 625;
}
);
},
{
glyphname = H.fina;
kernLeft = a;
kernRight = a;
lastChange = "2023-08-23 22:48:41 +0000";
layers = (
{
layerId = m01;
shapes = (
{
closed = 1;
nodes = (
(650,0,l),
(642.5,0,l),
(636,827,l),
(635.5,887,o),
(602.5,897,o),
(552.5,897,c),
(552.5,900,l),
(636,900,l),
(650,900,l)
);
},
{
closed = 1;
nodes = (
(148,175.5,ls),
(97.5,33.5,o),
(50,5,o),
(0,5,c),
(0,0,l),
(210,0,l),
(210,5,l),
(160,5,o),
(117,32,o),
(165,174,cs),
(411.5,900,l),
(237.5,900,l),
(237.5,895,l),
(312.5,893,ls),
(387.5,891,o),
(359.5,770,o),
(337,706.5,cs)
);
},
{
closed = 1;
nodes = (
(638,500,l),
(638,587.5,o),
(626.5,595,o),
(342.5,595,c),
(345,600,l),
(638.5,600,l)
);
}
);
width = 650;
}
);
},
{
glyphname = I.fina;
kernLeft = i;
kernRight = i;
lastChange = "2023-08-23 20:59:17 +0000";
layers = (
{
layerId = m01;
shapes = (
{
closed = 1;
nodes = (
(198,175.5,ls),
(147.5,33,o),
(94.5,5,o),
(0,5,c),
(0,0,l),
(275,0,l),
(275,5,l),
(200,5,o),
(167,32,o),
(215,174,cs),
(436,824.5,ls),
(451.5,869.5,o),
(474,895,o),
(575,895,cs),
(600,895,l),
(600,900,l),
(362.5,900,l),
(362.5,895,l),
(375,894,ls),
(457,887.5,o),
(432,832,o),
(412.5,777.5,cs)
);
}
);
width = 600;
}
);
},
{
glyphname = J.fina;
kernLeft = j;
kernRight = j;
lastChange = "2023-08-23 20:59:18 +0000";
layers = (
{
layerId = m01;
shapes = (
{
closed = 1;
nodes = (
(300,5,l),
(350,5,o),
(391,16.5,o),
(436,141.5,c),
(385,0,l),
(75,0,l),
(0,200,l),
(3.5,202.5,l),
(81,23.5,o),
(97,5,o),
(250,5,c)
);
},
{
closed = 1;
nodes = (
(407.5,0,l),
(712.5,900,l),
(380,900,l),
(380,895,l),
(475,895,l),
(675,895,o),
(697.5,867.5,o),
(610,625,cs),
(385,0,l)
);
}
);
width = 712.5;
}
);
},
{
glyphname = K.fina;
kernLeft = a;
kernRight = a;
lastChange = "2023-08-23 21:06:59 +0000";
layers = (
{
layerId = m01;
shapes = (
{
closed = 1;
nodes = (
(350,550,l),
(521,550,ls),
(671.5,550,o),
(679.5,472,o),
(684.5,412,cs),
(694.5,292,o),
(695,245,o),
(695,145,cs),
(695,0,l),
(700,0,l),
(700,555,l),
(350,555,l)
);
},
{
closed = 1;
nodes = (
(362.5,555,l),
(400,611.5,o),
(582,803.5,o),
(700,900,c),
(625,900,l),
(350,555,l)
);
},
{
piece = {
length = 110;
};
pos = (100,0);
ref = _part.stemNeue.002;
}
);
width = 700;
}
);
},
{
glyphname = L.fina;
kernLeft = a;
kernRight = l;
lastChange = "2023-08-23 21:12:15 +0000";
layers = (
{
layerId = m01;
shapes = (
{
closed = 1;
nodes = (
(575,5,o),
(612.5,25,o),
(612.5,300,c),
(616,300,l),
(616,0,l),
(210,0,l),
(210,5,l),
(450,5,l)
);
},
{
closed = 1;
nodes = (
(148,175.5,ls),
(97.5,33,o),
(50,5,o),
(0,5,c),
(0,0,l),
(210,0,l),
(210,5,l),
(160,5,o),
(117,32,o),
(165,174,cs),
(411.5,900,l),
(245,900,l),
(245,895,l),
(250,895,ls),
(400,895,o),
(382,832,o),
(362.5,777.5,cs)
);
}
);
width = 616;
}
);
},
{
glyphname = M.fina;
kernLeft = a;
kernRight = a;
lastChange = "2023-08-23 21:07:25 +0000";
layers = (
{
layerId = m01;
shapes = (
{
closed = 1;
nodes = (
(300,900,l),
(300,895,l),
(450,895,o),
(458,810,o),
(460,750,cs),
(464,630,o),
(465,175,o),
(465,25,c),
(475,25,l),
(709,775,l),
(706.5,775,l),
(575,412.5,ls),
(559,368,o),
(475,102,o),
(475,240,c),
(475,900,l)
);
},
{
closed = 1;
nodes = (
(627,900,l),
(627,895,l),
(785,895,o),
(783,810,o),
(785,750,cs),
(789,630,o),
(795,375,o),
(795,225,cs),
(795,0,l),
(800,0,l),
(800,900,l)
);
},
{
piece = {
length = 90;
};
pos = (100,0);
ref = _part.stemNeue.001;
}
);
width = 800;
}
);
},
{
glyphname = N.fina;
kernLeft = a;
kernRight = a;
lastChange = "2023-08-23 21:07:46 +0000";
layers = (
{
layerId = m01;
shapes = (
{
closed = 1;
nodes = (
(244.5,900,l),
(244.5,895,l),
(406.5,895,o),
(425,843.5,o),
(462.5,791.5,cs),
(503.5,734.5,o),
(643.5,489,o),
(680,387.5,cs),
(713,296.5,o),
(720,263,o),
(720,74,cs),
(720,0,l),
(725,0,l),
(725,400,l),
(420,900,l)
);
},
{
closed = 1;
nodes = (
(550,900,l),
(550,895,l),
(712,895,o),
(706,855,o),
(710,825,cs),
(718,765,o),
(720,526,o),
(720,475,c),
(725,475,l),
(725,900,l)
);
},
{
piece = {
length = 87.5;
};
pos = (100,0);
ref = _part.stemNeue.001;
}
);
width = 725;
}
);
},
{
glyphname = O.fina;
kernLeft = o;
kernRight = o;
lastChange = "2023-08-23 20:59:24 +0000";
layers = (
{
layerId = m01;
shapes = (
{
closed = 1;
nodes = (
(700.5,900.5,l),
(700,531.5,l),
(695,531.5,l),
(695,700,ls),
(695,823.5,o),
(664,895,o),
(562.5,895,cs),
(474,895,ls),
(424,895,o),
(397,857.5,o),
(373.5,788,cs),
(165,174,ls),
(118,36,o),
(160,5,o),
(210,5,c),
(247,5,l),
(344.5,5,o),
(435,120.5,o),
(492,175.5,cs),
(647.5,326.5,o),
(695,383.5,o),
(695,531.5,c),
(700,531.5,l),
(700,349.5,l),
(337,0,l),
(0,0,l),
(0,5,l),
(50,5,o),
(97.5,34.5,o),
(148,175.5,cs),
(406.5,900,l)
);
}
);
width = 700.5;
}
);
},
{
glyphname = P.fina;
kernLeft = a;
kernRight = o;
lastChange = "2023-08-24 01:23:41 +0000";
layers = (
{
layerId = m01;
shapes = (
{
closed = 1;
nodes = (
(262.5,894,l),
(475,892,ls),
(625,890.5,o),
(661.5,809.5,o),
(661.5,750,cs),
(662,600,ls),
(662,512.5,o),
(619,488.5,o),
(320,362.5,c),
(321.5,358.5,l),
(675,500,l),
(675,900,l),
(262.5,900,l)
);
},
{
pos = (100,0);
ref = _part.stemNeue.001;
}
);
width = 675;
}
);
},
{
glyphname = Q.fina;
kernLeft = a;
kernRight = a;
lastChange = "2023-08-23 21:10:11 +0000";
layers = (
{
layerId = m01;
shapes = (
{
closed = 1;
nodes = (
(375,389.5,l),
(495,139.5,o),
(525.5,20.5,o),
(460,10.5,cs),
(436.5,7,o),
(400,5,o),
(375,5,c),
(375,0,l),
(580.5,0,l),
(380,389.5,l)
);
},
{
piece = {
length = 110;
};
pos = (100,0);
ref = _part.stemNeue.001;
},
{
closed = 1;
nodes = (
(700.5,900.5,l),
(700,0,l),
(695,0,l),
(695,700,ls),
(695,823.5,o),
(664,895,o),
(562.5,895,cs),
(474,895,ls),
(424,895,o),
(397,857.5,o),
(373.5,788,c),
(411.5,900,l)
);
}
);
width = 700.5;
}
);
},
{
glyphname = R.fina;
kernLeft = a;
kernRight = a;
lastChange = "2023-08-23 23:15:52 +0000";
layers = (
{
layerId = m01;
shapes = (
{
closed = 1;
nodes = (
(369.5,670,l),
(602.5,505.5,o),
(657,453,o),
(675,395,cs),
(682,372,o),
(693,59,o),
(695,0,c),
(700,0,l),
(700,450,l),
(372.5,677.5,l)
);
},
{
closed = 1;
nodes = (
(250,895,l),
(339,895,ls),
(389,895,o),
(475,895,o),
(525,895,cs),
(675,895,o),
(692.5,850,o),
(692.5,737.5,cs),
(692.5,645,ls),
(692.5,595,o),
(681,575,o),
(600,575,c),
(600,570,l),
(700,570,l),
(700,900,l),
(250,900,l)
);
},
{
pos = (100,0);
ref = _part.stemNeue.001;
}
);
width = 700;
}
);
},
{
glyphname = S.fina;
kernLeft = a;
kernRight = a;
lastChange = "2023-08-23 21:11:05 +0000";
layers = (
{
layerId = m01;
shapes = (
{
piece = {
staffLength = 0;
staffWidth = 0;
};
pos = (50.5,0);
ref = _part.staff;
scale = (0.8325,1);
},
{
closed = 1;
nodes = (
(542.5,0,l),
(550,0,l),
(549.5,451,l),
(257.5,755,l),
(260,762.5,o),
(294,869.5,o),
(309,900,c),
(300,900,l),
(247.5,755,l),
(529.5,472.5,o),
(542.5,300,o),
(542.5,100,cs)
);
},
{
closed = 1;
nodes = (
(285,0,l),
(285,5,l),
(160,5,o),
(117,31.5,o),
(165,174,cs),
(308.5,600,l),
(302.5,600,l),
(148,175.5,ls),
(97,35,o),
(50,5,o),
(0,5,c),
(0,0,l)
);
}
);
width = 550;
}
);
},
{
glyphname = T.fina;
kernLeft = a;
kernRight = t;
lastChange = "2023-08-24 02:17:30 +0000";
layers = (
{
layerId = m01;
shapes = (
{
pos = (100,0);
ref = _part.stemNeue.001;
},
{
closed = 1;
nodes = (
(125,895,l),
(404.5,892.5,ls),
(516.5,891.5,o),
(556.5,884,o),
(586.5,859,cs),
(614.5,835.5,o),
(620,773.5,o),
(620,650,c),
(625,650,l),
(625,900,l),
(125,900,l)
);
}
);
width = 625;
}
);
},
{
glyphname = U.fina;
kernLeft = a;
kernRight = o;
lastChange = "2023-08-23 20:59:28 +0000";
layers = (
{
layerId = m01;
shapes = (
{
closed = 1;
nodes = (
(717.5,531.5,l),
(725,531.5,l),
(725,900,l),
(575,900,l),
(575,895,l),
(625,893,ls),
(696.5,890,o),
(717.5,817,o),
(720,759.5,c)
);
},
{
closed = 1;
nodes = (
(249.5,0,l),
(362,0,l),
(725,349.5,l),
(725,531.5,l),
(717.5,531.5,l),
(717.5,456.5,o),
(706.5,339,o),
(562.5,202.5,cs),
(372.5,23,o),
(337.5,25,o),
(250,25,c),
(210,25,l),
(210,0,l)
);
},
{
closed = 1;
nodes = (
(148,175.5,ls),
(97.5,33,o),
(50,5,o),
(0,5,c),
(0,0,l),
(210,0,l),
(210,25,l),
(160,25,o),
(117,32,o),
(165,174,cs),
(411.5,900,l),
(300,900,l),
(300,895,l),
(337.5,893,ls),
(387.5,890.5,o),
(385,841,o),
(362.5,777.5,cs)
);
}
);
width = 725;
}
);
},
{
glyphname = V.fina;
kernLeft = a;
kernRight = v;
lastChange = "2023-08-23 20:59:29 +0000";
layers = (
{
layerId = m01;
shapes = (
{
closed = 1;
nodes = (
(229.5,0,l),
(950,900,l),
(947.5,900,l),
(832.5,900,l),
(832.5,895,l),
(882.5,895,o),
(890.5,842.5,o),
(746.5,664.5,cs),
(225,20,l),
(161,50,o),
(145,115,o),
(202,286.5,c),
(103.5,0,l)
);
},
{
closed = 1;
nodes = (
(148,175.5,ls),
(97,32,o),
(50,5,o),
(0,5,c),
(0,0,l),
(210,0,l),
(210,5,l),
(160,5,o),
(117,32,o),
(165,174,cs),
(411.5,900,l),
(295,900,l),
(295,895,l),
(300,895,ls),
(393.5,895,o),
(381,830,o),
(298,597,cs)
);
}
);
width = 950;
}
);
},
{
glyphname = W.fina;
kernLeft = a;
kernRight = v;
lastChange = "2023-08-23 20:59:30 +0000";
layers = (
{
hints = (
{
name = _corner.rightSerif;
options = 1;
origin = (0,2);
type = Corner;
}
);
layerId = m01;
shapes = (
{
closed = 1;
nodes = (
(229.5,0,l),
(775,900,l),
(765,900,l),
(225,25,l),
(176.5,25,o),
(120,49,o),
(183,227,c),
(87.5,0,l)
);
},
{
closed = 1;
nodes = (
(579.5,0,l),
(1150,900,l),
(912.5,900,l),
(912.5,895,l),
(1100,895,o),
(1118,873.5,o),
(1040,745.5,c),
(575,25,l),
(496,25,o),
(457.5,20,o),
(457.5,184.5,cs),
(457.5,262.5,l),
(450,262.5,l),
(450,0,l)
);
},
{
closed = 1;
nodes = (
(148,175.5,ls),
(97,32,o),
(50,5,o),
(0,5,c),
(0,0,l),
(210,0,l),
(210,5,l),
(160,5,o),
(117,32,o),
(165,174,cs),
(411.5,900,l),
(257.5,900,l),
(257.5,895,l),
(300,895,ls),
(355,895,o),
(395.5,871,o),
(298,597,cs)
);
}
);
width = 1150;
}
);
},
{
glyphname = X.fina;
kernLeft = z;
kernRight = x;
lastChange = "2023-08-23 20:59:31 +0000";
layers = (
{
hints = (
{
name = _corner.leftSerif;
origin = (0,12);
type = Corner;
},
{
name = _corner.rightSerif;
options = 1;
origin = (0,13);
type = Corner;
}
);
layerId = m01;
shapes = (
{
closed = 1;
nodes = (
(721,750,l),
(721,900,l),
(575,900,l),
(575,895,l),
(625.5,893,ls),
(673,891,o),
(714.5,887.5,o),
(713.5,829.5,cs),
(713,791,ls),
(712.5,750,o),
(593,621.5,o),
(526,542.5,cs),
(66,0,l),
(86,0,l)
);
},
{
closed = 1;
nodes = (
(520,592,l),
(419.5,900,l),
(269.5,900,l),
(269.5,895,l),
(337,891.5,ls),
(397.5,888.5,o),
(435,810.5,o),
(456.5,750,c),
(514.5,586.5,l)
);
},
{
closed = 1;
nodes = (
(542,502.5,l),
(702,30,l),
(709.5,30,l),
(549,511.5,l)
);
}
);
width = 721;
}
);
},
{
glyphname = Y.fina;
kernLeft = z;
kernRight = o;
lastChange = "2023-08-23 20:59:31 +0000";
layers = (
{
layerId = m01;
shapes = (
{
closed = 1;
nodes = (
(318.5,0,l),
(318.5,5,l),
(268.5,5,o),
(233.5,10.5,o),
(308,73.5,c),
(606.5,345.5,l),
(602.5,345.5,l),
(213,15.5,o),
(224.5,-3,o),
(0,5,c),
(0,0,l)
);
},
{
closed = 1;
nodes = (
(300,210,l),
(612.5,390,l),
(612.5,900,l),
(487.5,900,l),
(487.5,895,l),
(512.5,893,ls),
(587.5,887,o),
(606,880,o),
(605,780,cs),
(602.5,458,ls),
(602,423.5,o),
(574.5,391,o),
(545,372.5,cs),
(281,210,l)
);
},
{
closed = 1;
nodes = (
(297.5,210,l),
(305,218.5,l),
(180,218.5,o),
(177,274,o),
(242,464,cs),
(391,900,l),
(272.5,900,l),
(272.5,895,l),
(294,893,ls),
(362.5,886.5,o),
(378,877,o),
(332.5,750,cs),
(140,210,l)
);
}
);
width = 612.5;
}
);
},
{
glyphname = Z.fina;
kernLeft = z;
lastChange = "2023-10-24 01:59:12 +0000";
layers = (
{
hints = (
{
name = _corner.leftSerif;
origin = (0,11);
type = Corner;
}
);
layerId = m01;
shapes = (
{
closed = 1;
nodes = (
(725,0,l),
(725,200,l),
(720,200,l),
(720,25,o),
(700,5,o),
(575,5,cs),
(200,5,o),
(102.5,18,o),
(154,92.5,cs),
(504,600,l),
(498,600,l),
(71.5,0,l)
);
},
{
closed = 1;
nodes = (
(562.5,680,l),
(725,900,l),
(247.5,900,l),
(175,700,l),
(180,700,l),
(205,756.5,ls),
(253.5,866.5,o),
(273,895,o),
(355,895,cs),
(517.5,895,ls),
(571,895,o),
(636,885.5,o),
(650,865,cs),
(672,831.5,o),
(626,787.5,o),
(557.5,680,c)
);
}
);
width = 725;
}
);
},
{
glyphname = E_J;
kernLeft = e;
kernRight = j;
lastChange = "2023-08-23 22:30:46 +0000";
layers = (
{
layerId = m01;
shapes = (
{
closed = 1;
nodes = (
(250,897,l),
(454.5,891.5,ls),
(566.5,888.5,o),
(600,868,o),
(634.5,826.5,cs),
(670.5,783,o),
(672,678.5,o),
(672,650,c),
(675,650,l),
(675,900,l),
(250,900,l)
);
},
{
closed = 1;
nodes = (
(315,618.5,l),
(438,618.5,o),
(452.5,614,o),
(479,568,cs),
(492,545.5,o),
(494.5,519.5,o),
(497,482,c),
(500,482,l),
(500,625,l),
(315,625,l)
);
},
{
closed = 1;
nodes = (
(416,5,l),
(210,5,l),
(210,0,l),
(416,0,l)
);
},
{
pos = (100,0);
ref = _part.stemNeue.001;
},
{
closed = 1;
nodes = (
(593.5,23.5,o),
(609.5,5,o),
(700,5,c),
(750,5,o),
(791,16.5,o),
(836,141.5,c),
(785,0,l),
(587.5,0,l),
(512.5,200,l),
(516,202.5,l)
);
},
{
closed = 1;
nodes = (
(807.5,0,l),
(1112.5,900,l),
(780,900,l),
(780,895,l),
(875,895,l),
(1075,895,o),
(1097.5,867.5,o),
(1010,625,cs),
(785,0,l)
);
}
);
width = 1112.5;
}
);
metricLeft = E;
metricRight = J;
},
{
glyphname = L_A;
lastChange = "2023-10-03 07:44:41 +0000";
layers = (
{
layerId = m01;
shapes = (
{
closed = 1;
nodes = (
(423,5,o),
(474,40,o),
(580,240,c),
(585,237.5,l),
(465.5,0,l),
(210,0,l),
(210,5,l),
(290.5,5,l)
);
},
{
closed = 1;
nodes = (
(148,175.5,ls),
(97.5,33,o),
(50,5,o),
(0,5,c),
(0,0,l),
(210,0,l),
(210,5,l),
(160,5,o),
(117,32,o),
(165,174,cs),
(411.5,900,l),
(245,900,l),
(245,895,l),
(250,895,ls),
(400,895,o),
(382,832,o),
(362.5,777.5,cs)
);
},
{
closed = 1;
nodes = (
(525,894,l),
(625,892,ls),
(755,889.5,o),
(799,865.5,o),
(810,812.5,cs),
(818,730.5,o),
(817.5,406.5,o),
(817.5,300,c),
(825,300,l),
(825,872.5,l),
(825,900,l),
(525,900,l)
);
},
{
piece = {
Diagonal = -100;
Rotate = 0;
};
pos = (225,0);
ref = _part.stroke;
},
{
closed = 1;
nodes = (
(440,174,l),
(679.5,877.5,l),
(673.5,877.5,l),
(423,175.5,l)
);
}
);
width = 825;
}
);
metricLeft = L;
metricRight = A;
},
{
glyphname = T_H;
kernLeft = a;
kernRight = a;
lastChange = "2023-08-23 22:48:58 +0000";
layers = (
{
layerId = m01;
shapes = (
{
pos = (100,0);
ref = _part.stemNeue.001;
},
{
closed = 1;
nodes = (
(1000,75,l),
(992.5,75,l),
(986,827,l),
(985.5,887,o),
(952.5,897,o),
(902.5,897,c),
(902.5,900,l),
(986,900,l),
(1000,900,l)
);
},
{
closed = 1;
nodes = (
(498,175.5,ls),
(447.5,33.5,o),
(400,5,o),
(350,5,c),
(350,0,l),
(560,0,l),
(560,5,l),
(510,5,o),
(467,32,o),
(515,174,cs),
(761.5,900,l),
(125,900,l),
(125,895,l),
(662.5,893,ls),
(737.5,891,o),
(709.5,770,o),
(687,706.5,cs)
);
},
{
closed = 1;
nodes = (
(988,500,l),
(988,587.5,o),
(976.5,595,o),
(692.5,595,c),
(695,600,l),
(988.5,600,l)
);
}
);
width = 1000;
}
);
metricLeft = T;
metricRight = H;
},
{
glyphname = T_H_E;
lastChange = "2023-08-23 23:35:52 +0000";
layers = (
{
layerId = m01;
shapes = (
{
pos = (100,0);
ref = _part.stemNeue.001;
},
{
closed = 1;
nodes = (
(498,175.5,ls),
(447.5,33.5,o),
(400,5,o),
(350,5,c),
(350,0,l),
(560,0,l),
(560,5,l),
(510,5,o),
(467,32,o),
(515,174,cs),
(761.5,900,l),
(125,900,l),
(125,895,l),
(662.5,893,ls),
(737.5,892.5,o),
(709.5,770,o),
(687,706.5,cs)
);
},
{
closed = 1;
nodes = (
(1025,897,l),
(1229.5,891.5,ls),
(1341.5,888.5,o),
(1375,868,o),
(1409.5,826.5,cs),
(1445.5,783,o),
(1447,678.5,o),
(1447,650,c),
(1450,650,l),
(1450,900,l),
(1025,900,l)
);
},
{
closed = 1;
nodes = (
(692,593.5,l),
(1090,593.5,ls),
(1213,593.5,o),
(1227.5,589,o),
(1254,543,cs),
(1267,520.5,o),
(1269.5,494.5,o),
(1272,457,c),
(1275,457,l),
(1275,600,l),
(695,600,l)
);
},
{
closed = 1;
nodes = (
(1314,275,l),
(1271,156,ls),
(1221,18,o),
(1216,5,o),
(1062.5,5,cs),
(1052.5,5,o),
(985,5,o),
(985,5,c),
(985,0,l),
(1230,0,l),
(1319,275,l)
);
},
{
pos = (875,0);
ref = _part.stemNeue.001;
}
);
width = 1450;
}
);
metricLeft = T;
metricRight = E;
},
{
glyphname = T_H.002;
lastChange = "2023-08-23 20:56:34 +0000";
layers = (
{
layerId = m01;
shapes = (
{
pos = (50,0);
ref = _part.stemNeue.001;
},
{
closed = 1;
nodes = (
(975,75,l),
(967.5,75,l),
(961,827,l),
(960.5,887,o),
(927.5,897,o),
(877.5,897,c),
(877.5,900,l),
(961,900,l),
(975,900,l)
);
},
{
closed = 1;
nodes = (
(473,175.5,ls),
(422.5,33.5,o),
(375,5,o),
(325,5,c),
(325,0,l),
(535,0,l),
(535,5,l),
(485,5,o),
(442,32,o),
(490,174,cs),
(736.5,900,l),
(75,900,l),
(75,895,l),
(525,893,ls),
(725,892,o),
(695.5,800.5,o),
(662,706.5,cs)
);
},
{
closed = 1;
nodes = (
(963,525,l),
(963,612.5,o),
(951.5,620,o),
(667.5,620,c),
(670,625,l),
(963.5,625,l)
);
}
);
width = 975;
}
);
metricLeft = T;
metricRight = H;
},
{
glyphname = T_H_E.002;
lastChange = "2023-08-23 20:48:58 +0000";
layers = (
{
layerId = m01;
shapes = (
{
closed = 1;
nodes = (
(150,895,l),
(380,895,ls),
(634.5,895,o),
(680,895,o),
(716.5,866.5,cs),
(750,840.5,o),
(767.5,806.5,o),
(690,587.5,c),
(721,650,l),
(806.5,900,l),
(150,900,l)
);
},
{
closed = 1;
nodes = (
(543,175.5,ls),
(492.5,33.5,o),
(445,5,o),
(395,5,c),
(395,0,l),
(605,0,l),
(605,5,l),
(555,5,o),
(512,32,o),
(560,174,cs),
(806.5,900,l),
(801.5,900,l)
);
},
{
closed = 1;
nodes = (
(1050,897,l),
(1254.5,891.5,ls),
(1366.5,888.5,o),
(1400,868,o),
(1434.5,826.5,cs),
(1470.5,783,o),
(1472,678.5,o),
(1472,650,c),
(1475,650,l),
(1475,900,l),
(1050,900,l)
);
},
{
closed = 1;
nodes = (
(707.5,618.5,l),
(1252.5,614,o),
(1258,613.5,o),
(1279,575.5,cs),
(1291.5,553,o),
(1294.5,519.5,o),
(1297,482,c),
(1300,482,l),
(1300,625,l),
(707.5,625,l)
);
},
{
closed = 1;
nodes = (
(1477.5,275,l),
(1434.5,156,ls),
(1384.5,18,o),
(1379.5,5,o),
(1218,5,cs),
(1208,5,o),
(1010,5,o),
(1010,5,c),
(1010,0,l),
(1393.5,0,l),
(1482.5,275,l)
);
},
{
pos = (900,0);
ref = _part.stemNeue.001;
},
{
pos = (125,0);
ref = _part.stemNeue.001;
},
{
closed = 1;
nodes = (
(55,650,l),
(55,883,o),
(103.5,895,o),
(176.5,895,c),
(176.5,900,l),
(50.5,900,l),
(50,650,l)
);
}
);
width = 1450;
}
);
},
{
glyphname = T_H_E.003;
lastChange = "2023-08-23 20:56:40 +0000";
layers = (
{
layerId = m01;
shapes = (
{
closed = 1;
nodes = (
(50,895,l),
(280,895,ls),
(534.5,895,o),
(580,895,o),
(616.5,866.5,cs),
(650,840.5,o),
(667.5,806.5,o),
(590,587.5,c),
(621,650,l),
(706.5,900,l),
(50,900,l)
);
},
{
closed = 1;
nodes = (
(443,175.5,ls),
(392.5,33.5,o),
(345,5,o),
(295,5,c),
(295,0,l),
(505,0,l),
(505,5,l),
(455,5,o),
(412,32,o),
(460,174,cs),
(706.5,900,l),
(701.5,900,l)
);
},
{
closed = 1;
nodes = (
(975,897,l),
(1179.5,891.5,ls),
(1291.5,888.5,o),
(1325,868,o),
(1359.5,826.5,cs),
(1395.5,783,o),
(1397,678.5,o),
(1397,650,c),
(1400,650,l),
(1400,900,l),
(975,900,l)
);
},
{
closed = 1;
nodes = (
(604.5,618.5,l),
(1124.5,614,o),
(1183,613.5,o),
(1204,575.5,cs),
(1216.5,553,o),
(1219.5,519.5,o),
(1222,482,c),
(1225,482,l),
(1225,625,l),
(604.5,625,l)
);
},
{
closed = 1;
nodes = (
(1395,337.5,l),
(1395,150,ls),
(1395,42.5,o),
(1352,5,o),
(1237.5,5,cs),
(1227.5,5,o),
(935,5,o),
(935,5,c),
(935,0,l),
(1400,0,l),
(1400,337.5,l)
);
},
{
pos = (825,0);
ref = _part.stemNeue.001;
},
{
pos = (25,0);
ref = _part.stemNeue.001;
},
{
closed = 1;
nodes = (
(-45,650,l),
(-45,883,o),
(3.5,895,o),
(76.5,895,c),
(76.5,900,l),
(-49.5,900,l),
(-50,650,l)
);
}
);
width = 1350;
}
);
},
{
glyphname = T_H.fina;
kernLeft = a;
kernRight = a;
lastChange = "2023-10-03 07:45:50 +0000";
layers = (
{
layerId = m01;
shapes = (
{
pos = (100,0);
ref = _part.stemNeue.001;
},
{
closed = 1;
nodes = (
(1000,0,l),
(992.5,0,l),
(986,827,l),
(985.5,887,o),
(952.5,897,o),
(902.5,897,c),
(902.5,900,l),
(986,900,l),
(1000,900,l)
);
},
{
closed = 1;
nodes = (
(498,175.5,ls),
(447.5,33.5,o),
(400,5,o),
(350,5,c),
(350,0,l),
(560,0,l),
(560,5,l),
(510,5,o),
(467,32,o),
(515,174,cs),
(761.5,900,l),
(125,900,l),
(125,895,l),
(662.5,893,ls),
(737.5,892.5,o),
(709.5,770,o),
(687,706.5,cs)
);
},
{
closed = 1;
nodes = (
(988,500,l),
(988,587.5,o),
(976.5,595,o),
(692.5,595,c),
(695,600,l),
(988.5,600,l)
);
}
);
width = 1000;
}
);
metricLeft = T;
metricRight = H;
},
{
glyphname = T_H_E.isol;
lastChange = "2023-08-23 23:29:28 +0000";
layers = (
{
layerId = m01;
shapes = (
{
pos = (100,0);
ref = _part.stemNeue.001;
},
{
closed = 1;
nodes = (
(498,175.5,ls),
(447.5,33.5,o),
(400,5,o),
(350,5,c),
(350,0,l),
(560,0,l),
(560,5,l),
(510,5,o),
(467,32,o),
(515,174,cs),
(761.5,900,l),
(125,900,l),
(125,895,l),
(662.5,893,ls),
(737.5,892.5,o),
(709.5,770,o),
(687,706.5,cs)
);
},
{
closed = 1;
nodes = (
(1025,897,l),
(1229.5,891.5,ls),
(1341.5,888.5,o),
(1375,868,o),
(1409.5,826.5,cs),
(1445.5,783,o),
(1447,678.5,o),
(1447,650,c),
(1450,650,l),
(1450,900,l),
(1025,900,l)
);
},
{
closed = 1;
nodes = (
(692,593.5,l),
(1090,593.5,ls),
(1213,593.5,o),
(1227.5,589,o),
(1254,543,cs),
(1267,520.5,o),
(1269.5,494.5,o),
(1272,457,c),
(1275,457,l),
(1275,600,l),
(695,600,l)
);
},
{
closed = 1;
nodes = (
(1395,275,l),
(1352,156,ls),
(1302,18,o),
(1297,5,o),
(1143.5,5,cs),
(1133.5,5,o),
(985,5,o),
(985,5,c),
(985,0,l),
(1311,0,l),
(1400,275,l)
);
},
{
pos = (875,0);
ref = _part.stemNeue.001;
},
{
closed = 1;
nodes = (
(0,900,l),
(0,650,l),
(3,650,l),
(3,678.5,o),
(4,806.5,o),
(40,850,cs),
(74.5,891.5,o),
(108.5,888.5,o),
(220.5,891.5,cs),
(425,897,l),
(425,900,l)
);
}
);
width = 1450;
}
);
metricLeft = T;
metricRight = E;
},
{
export = 0;
glyphname = _corner.leftSerif;
lastChange = "2023-07-13 02:21:55 +0000";
layers = (
{
anchors = (
{
name = left;
pos = (0,40);
},
{
name = origin;
},
{
name = right;
pos = (17.5,0);
}
);
layerId = m01;
shapes = (
{
closed = 0;
nodes = (
(0,184,l),
(0,34,o),
(-50,5,o),
(-100,5,c),
(-100,0,l),
(0,0,l)
);
}
);
width = 600;
}
);
},
{
export = 0;
glyphname = _corner.rightSerif;
lastChange = "2023-07-16 23:53:49 +0000";
layers = (
{
layerId = m01;
shapes = (
{
closed = 0;
nodes = (
(-10,0,l),
(105,0,l),
(105,5,l),
(55,5,o),
(5,34,o),
(5,184,c)
);
}
);
width = 600;
}
);
},
{
export = 0;
glyphname = _part.bowl;
lastChange = "2023-07-18 08:13:01 +0000";
layers = (
{
hints = (
{
name = _corner.leftSerif;
origin = (0,7);
type = Corner;
}
);
layerId = m01;
partSelection = {
topWidth = 1;
bottomWidth = 1;
bottomAngle = 1;
topAngle = 2;
};
shapes = (
{
closed = 1;
nodes = (
(300,894,l),
(400,892.222,ls),
(550,889.5,o),
(573,809.5,o),
(579.5,750,cs),
(592.5,629,o),
(587,560,o),
(587,500,c),
(600,500,l),
(600,900,l),
(300,900,l)
);
}
);
width = 600;
},
{
associatedMasterId = m01;
hints = (
{
name = _corner.leftSerif;
origin = (0,7);
scale = (3,0.8);
type = Corner;
}
);
layerId = "6A960D11-B739-4E4E-A7EA-28E121AE5662";
name = "Bottom Widened";
partSelection = {
topWidth = 1;
bottomWidth = 2;
bottomAngle = 1;
topAngle = 2;
};
shapes = (
{
closed = 1;
nodes = (
(300,894,l),
(400,892.222,ls),
(550,891,o),
(587.5,809.5,o),
(587.5,750,cs),
(587.5,578,o),
(587.5,560,o),
(587.5,500,c),
(600,500,l),
(600,900,l),
(300,900,l)
);
}
);
width = 600;
},
{
associatedMasterId = m01;
hints = (
{
name = _corner.leftSerif;
origin = (0,7);
type = Corner;
}
);
layerId = "449C2E8E-F864-47EF-8C1B-D79FA4CFE819";
name = "Top Widened";
partSelection = {
topWidth = 2;
bottomWidth = 1;
bottomAngle = 1;
topAngle = 2;
};
shapes = (
{
closed = 1;
nodes = (
(150,894,l),
(400,892.222,ls),
(550,889.5,o),
(573,809.5,o),
(579.5,750,cs),
(592.5,629,o),
(587,560,o),
(587,500,c),
(600,500,l),
(600,900,l),
(150,900,l)
);
}
);
width = 600;
},
{
associatedMasterId = m01;
hints = (
{
name = _corner.leftSerif;
origin = (0,7);
scale = (2,1);
type = Corner;
}
);
layerId = "4296E79F-CA92-4C0C-9C21-9104BB32CE00";
name = "P Var";
partSelection = {
topWidth = 1;
bottomWidth = 1;
bottomAngle = 2;
topAngle = 2;
};
shapes = (
{
closed = 1;
nodes = (
(300,894,l),
(400,892.222,ls),
(550,889.5,o),
(573,809.5,o),
(579.5,750,cs),
(592.5,629,o),
(587,555,o),
(587,495,c),
(600,500,l),
(600,900,l),
(300,900,l)
);
}
);
width = 600;
},
{
associatedMasterId = m01;
hints = (
{
name = _corner.leftSerif;
origin = (0,7);
scale = (1.25,0.8);
type = Corner;
}
);
layerId = "350090A1-3020-4D94-93B9-B424075598D2";
name = "B Var";
partSelection = {
topWidth = 1;
bottomWidth = 1;
bottomAngle = 1;
topAngle = 1;
};
shapes = (
{
closed = 1;
nodes = (
(300,894,l),
(375,892,ls),
(475,889.5,o),
(508.5,809.5,o),
(525,750,cs),
(557.5,633,o),
(587,560,o),
(587,500,c),
(600,500,l),
(500,900,l),
(300,900,l)
);
}
);
width = 600;
}
);
partsSettings = (
{
bottomValue = 0;
name = topWidth;
topValue = 100;
},
{
bottomValue = 0;
name = bottomWidth;
topValue = 100;
},
{
bottomValue = 0;
name = bottomAngle;
topValue = 100;
},
{
bottomValue = -100;
name = topAngle;
topValue = 0;
}
);
},
{
export = 0;
glyphname = _part.staff;
lastChange = "2023-07-20 02:58:33 +0000";
layers = (
{
layerId = m01;
partSelection = {
staffLength = 2;
staffWidth = 1;
staffThickness = 1;
staffAngle = 2;
};
shapes = (
{
closed = 1;
nodes = (
(300,893.889,l),
(400,892.222,ls),
(550,889.5,o),
(578,810,o),
(580,750,cs),
(584,630,o),
(592.5,150,o),
(592.5,0,c),
(600,0,l),
(600,875,l),
(600,900,l),
(300,900,l)
);
}
);
width = 600;
},
{
associatedMasterId = m01;
layerId = "45510E9A-48B7-4B14-8021-CF23C84B157D";
name = Short;
partSelection = {
staffLength = 1;
staffWidth = 1;
staffThickness = 1;
staffAngle = 2;
};
shapes = (
{
closed = 1;
nodes = (
(300,893.889,l),
(400,892.222,ls),
(500,890.5,o),
(550.5,867.5,o),
(575,825,cs),
(589.5,800,o),
(592.5,791,o),
(592.5,750,c),
(600,750,l),
(600,868.5,l),
(600,900,l),
(300,900,l)
);
}
);
width = 600;
},
{
associatedMasterId = m01;
layerId = "EFD017F6-EE07-4665-BD36-169C64CDCDD7";
name = Overshoot;
partSelection = {
staffLength = 2;
staffWidth = 2;
staffThickness = 1;
staffAngle = 2;
};
shapes = (
{
closed = 1;
nodes = (
(150,894,l),
(400,892,ls),
(550,891,o),
(578,810,o),
(580,750,cs),
(584,630,o),
(592.5,150,o),
(592.5,0,c),
(600,0,l),
(600,861.5,l),
(600,900,l),
(150,900,l)
);
}
);
width = 600;
},
{
associatedMasterId = m01;
layerId = "84F8DF0D-FB19-42AA-8266-BFDC47CA1A34";
name = Thickened;
partSelection = {
staffLength = 2;
staffWidth = 1;
staffThickness = 2;
staffAngle = 2;
};
shapes = (
{
closed = 1;
nodes = (
(300,894,l),
(400,892.5,ls),
(550,890.5,o),
(558,810,o),
(560,750,cs),
(564,630,o),
(565,450,o),
(565,300,c),
(600,300,l),
(600,843,l),
(600,900,l),
(300,900,l)
);
}
);
width = 600;
},
{
associatedMasterId = m01;
layerId = "2B46FD26-CF6F-4FF8-81EA-D3F83A1609B6";
name = Angle;
partSelection = {
staffLength = 2;
staffWidth = 1;
staffThickness = 1;
staffAngle = 1;
};
shapes = (
{
closed = 1;
nodes = (
(300,893.889,l),
(400,894,ls),
(550.5,894,o),
(580,658,o),
(580,607.5,cs),
(580,487.5,o),
(592.5,150,o),
(592.5,0,c),
(600,0,l),
(600,750,l),
(470,900,l),
(300,900,l)
);
}
);
width = 600;
}
);
partsSettings = (
{
bottomValue = 0;
name = staffLength;
topValue = 100;
},
{
bottomValue = 0;
name = staffWidth;
topValue = 100;
},
{
bottomValue = 0;
name = staffThickness;
topValue = 100;
},
{
bottomValue = -100;
name = staffAngle;
topValue = 0;
}
);
},
{
export = 0;
glyphname = _part.stroke;
lastChange = "2023-07-20 00:43:41 +0000";
layers = (
{
layerId = m01;
partSelection = {
Diagonal = 1;
Rotate = 2;
};
shapes = (
{
closed = 1;
nodes = (
(300,290,l),
(510,290,o),
(562,268,o),
(580,210,cs),
(587,187,o),
(594,135,o),
(596,76,c),
(600,76,l),
(600,300,l),
(300,300,l)
);
}
);
width = 600;
},
{
associatedMasterId = m01;
layerId = "BCFDD148-B77D-406A-87A2-E55CD788FCE5";
name = "R Var";
partSelection = {
Diagonal = 2;
Rotate = 2;
};
shapes = (
{
closed = 1;
nodes = (
(250,595,l),
(531,432,o),
(557,393,o),
(575,335,cs),
(582,312,o),
(594,144,o),
(596,85,c),
(600,85,l),
(600,400,l),
(251,600,l)
);
}
);
width = 600;
},
{
associatedMasterId = m01;
layerId = "2834D512-1EE6-4049-A1BD-C0EA1FC05F32";
name = "B Var";
partSelection = {
Diagonal = 2;
Rotate = 1;
};
shapes = (
{
closed = 1;
nodes = (
(250,595,l),
(531,432,o),
(532,412,o),
(550,354,cs),
(561.5,315.5,o),
(480.5,59,o),
(461,0,c),
(465,0,l),
(600,400,l),
(251,600,l)
);
}
);
width = 600;
},
{
associatedMasterId = m01;
layerId = "CF8D0534-06A1-4E55-BF35-BA610B411878";
name = "G Var";
partSelection = {
Diagonal = 1;
Rotate = 1;
};
shapes = (
{
closed = 1;
nodes = (
(300,290,l),
(510,290,o),
(537,268,o),
(555,210,cs),
(562,187,o),
(559,135,o),
(546,76,c),
(550,76,l),
(600,300,l),
(300,300,l)
);
}
);
width = 600;
}
);
partsSettings = (
{
bottomValue = -100;
name = Diagonal;
topValue = 0;
},
{
bottomValue = -100;
name = Rotate;
topValue = 0;
}
);
},
{
export = 0;
glyphname = _part.stem.001;
lastChange = "2023-07-21 04:50:12 +0000";
layers = (
{
hints = (
{
name = _corner.leftSerif;
origin = (0,3);
type = Corner;
},
{
name = _corner.rightSerif;
options = 1;
origin = (0,0);
type = Corner;
}
);
layerId = m01;
partSelection = {
stemLength = 2;
serifLength = 1;
stemWidth = 1;
stemAngle = 2;
};
shapes = (
{
closed = 1;
nodes = (
(20,0,l),
(600,900,l),
(594,900,l),
(0,0,l)
);
}
);
width = 600;
},
{
associatedMasterId = m01;
hints = (
{
name = _corner.leftSerif;
origin = (0,3);
type = Corner;
},
{
name = _corner.rightSerif;
options = 1;
origin = (0,0);
type = Corner;
}
);
layerId = "FD32427F-FC09-4938-9257-7B45657633AB";
name = Upright;
partSelection = {
stemLength = 2;
serifLength = 1;
stemWidth = 1;
stemAngle = 1;
};
shapes = (
{
closed = 1;
nodes = (
(20,0,l),
(150,900,l),
(144,900,l),
(0,0,l)
);
}
);
width = 600;
},
{
associatedMasterId = m01;
hints = (
{
name = _corner.leftSerif;
origin = (0,3);
type = Corner;
},
{
name = _corner.rightSerif;
options = 1;
origin = (0,0);
scale = (5,1);
type = Corner;
}
);
layerId = "E9044493-4DE1-40B2-A24E-6433A3027068";
name = Sharpened;
partSelection = {
stemLength = 2;
serifLength = 2;
stemWidth = 1;
stemAngle = 2;
};
shapes = (
{
closed = 1;
nodes = (
(20,0,l),
(600,900,l),
(594,900,l),
(0,0,l)
);
}
);
width = 600;
},
{
associatedMasterId = m01;
hints = (
{
name = _corner.leftSerif;
origin = (0,3);
type = Corner;
},
{
name = _corner.rightSerif;
options = 1;
origin = (0,0);
type = Corner;
}
);
layerId = "AF2E0F19-1B60-4EE5-A479-968FD8456FCB";
name = "Upright Short";
partSelection = {
stemLength = 1;
serifLength = 1;
stemWidth = 1;
stemAngle = 1;
};
shapes = (
{
closed = 1;
nodes = (
(20,0,l),
(150,600,l),
(144,600,l),
(0,0,l)
);
}
);
width = 600;
},
{
associatedMasterId = m01;
hints = (
{
name = _corner.leftSerif;
origin = (0,3);
type = Corner;
},
{
name = _corner.rightSerif;
options = 1;
origin = (0,0);
scale = (3,0.6);
type = Corner;
}
);
layerId = "92E17FEF-DCC5-44C6-9995-F39E5DB9001A";
name = "Short Sharpened";
partSelection = {
stemLength = 1;
serifLength = 2;
stemWidth = 1;
stemAngle = 2;
};
shapes = (
{
closed = 1;
nodes = (
(20,0,l),
(400,600,l),
(394,600,l),
(0,0,l)
);
}
);
width = 600;
},
{
associatedMasterId = m01;
hints = (
{
name = _corner.leftSerif;
origin = (0,3);
type = Corner;
},
{
name = _corner.rightSerif;
options = 1;
origin = (0,0);
scale = (3,0.6);
type = Corner;
}
);
layerId = "1B631D66-179C-4168-BF60-A02E33B6DEAC";
name = "Upright Short Sharpened";
partSelection = {
stemLength = 1;
serifLength = 2;
stemWidth = 1;
stemAngle = 1;
};
shapes = (
{
closed = 1;
nodes = (
(20,0,l),
(150,600,l),
(144,600,l),
(0,0,l)
);
}
);
width = 600;
}
);
partsSettings = (
{
bottomValue = 0;
name = stemLength;
topValue = 100;
},
{
bottomValue = 0;
name = serifLength;
topValue = 400;
},
{
bottomValue = 0;
name = stemWidth;
topValue = 100;
},
{
bottomValue = -100;
name = stemAngle;
topValue = 0;
}
);
},
{
export = 0;
glyphname = _part.stem.002;
lastChange = "2023-07-21 22:03:59 +0000";
layers = (
{
hints = (
{
name = _corner.leftSerif;
origin = (0,3);
type = Corner;
},
{
name = _corner.rightSerif;
options = 1;
origin = (0,0);
type = Corner;
},
{
name = _corner.rightSerif;
options = 1;
origin = (0,2);
scale = (1,0.75);
type = Corner;
}
);
layerId = m01;
partSelection = {
stemLength = 2;
serifLength = 1;
stemWidth = 1;
stemAngle = 2;
};
shapes = (
{
closed = 1;
nodes = (
(20,0,l),
(300,900,l),
(294,900,l),
(0,0,l)
);
}
);
width = 600;
},
{
associatedMasterId = m01;
hints = (
{
name = _corner.leftSerif;
origin = (0,3);
type = Corner;
},
{
name = _corner.rightSerif;
options = 1;
origin = (0,0);
type = Corner;
},
{
name = _corner.rightSerif;
options = 1;
origin = (0,2);
scale = (1,0.75);
type = Corner;
}
);
layerId = "FD32427F-FC09-4938-9257-7B45657633AB";
name = Upright;
partSelection = {
stemLength = 2;
serifLength = 1;
stemWidth = 1;
stemAngle = 1;
};
shapes = (
{
closed = 1;
nodes = (
(20,0,l),
(150,900,l),
(144,900,l),
(0,0,l)
);
}
);
width = 600;
},
{
associatedMasterId = m01;
hints = (
{
name = _corner.leftSerif;
origin = (0,3);
type = Corner;
},
{
name = _corner.rightSerif;
options = 1;
origin = (0,0);
scale = (5.5,1);
type = Corner;
},
{
name = _corner.rightSerif;
options = 1;
origin = (0,2);
scale = (1,0.75);
type = Corner;
}
);
layerId = "E9044493-4DE1-40B2-A24E-6433A3027068";
name = Sharpened;
partSelection = {
stemLength = 2;
serifLength = 2;
stemWidth = 1;
stemAngle = 2;
};
shapes = (
{
closed = 1;
nodes = (
(20,0,l),
(300,900,l),
(294,900,l),
(0,0,l)
);
}
);
width = 600;
},
{
associatedMasterId = m01;
hints = (
{
name = _corner.leftSerif;
origin = (0,3);
type = Corner;
},
{
name = _corner.rightSerif;
options = 1;
origin = (0,0);
type = Corner;
},
{
name = _corner.rightSerif;
options = 1;
origin = (0,2);
scale = (0.5,0.5);
type = Corner;
}
);
layerId = "AF2E0F19-1B60-4EE5-A479-968FD8456FCB";
name = "Upright Short";
partSelection = {
stemLength = 1;
serifLength = 1;
stemWidth = 1;
stemAngle = 1;
};
shapes = (
{
closed = 1;
nodes = (
(20,0,l),
(150,600,l),
(144,600,l),
(0,0,l)
);
}
);
width = 600;
},
{
associatedMasterId = m01;
hints = (
{
name = _corner.leftSerif;
origin = (0,3);
type = Corner;
},
{
name = _corner.rightSerif;
options = 1;
origin = (0,0);
scale = (3,0.6);
type = Corner;
},
{
name = _corner.rightSerif;
options = 1;
origin = (0,2);
scale = (0.5,0.5);
type = Corner;
}
);
layerId = "92E17FEF-DCC5-44C6-9995-F39E5DB9001A";
name = "Short Sharpened";
partSelection = {
stemLength = 1;
serifLength = 2;
stemWidth = 1;
stemAngle = 2;
};
shapes = (
{
closed = 1;
nodes = (
(20,0,l),
(250,600,l),
(244,600,l),
(0,0,l)
);
}
);
width = 600;
},
{
associatedMasterId = m01;
hints = (
{
name = _corner.leftSerif;
origin = (0,3);
type = Corner;
},
{
name = _corner.rightSerif;
options = 1;
origin = (0,0);
scale = (3,0.6);
type = Corner;
},
{
name = _corner.rightSerif;
options = 1;
origin = (0,2);
scale = (0.5,0.5);
type = Corner;
}
);
layerId = "1B631D66-179C-4168-BF60-A02E33B6DEAC";
name = "Upright Short Sharpened";
partSelection = {
stemLength = 1;
serifLength = 2;
stemWidth = 1;
stemAngle = 1;
};
shapes = (
{
closed = 1;
nodes = (
(20,0,l),
(150,600,l),
(144,600,l),
(0,0,l)
);
}
);
width = 600;
}
);
partsSettings = (
{
bottomValue = 0;
name = stemLength;
topValue = 100;
},
{
bottomValue = 0;
name = serifLength;
topValue = 100;
},
{
bottomValue = 0;
name = stemWidth;
topValue = 100;
},
{
bottomValue = -100;
name = stemAngle;
topValue = 0;
}
);
},
{
export = 0;
glyphname = _part.stem.003;
lastChange = "2023-07-18 07:11:52 +0000";
layers = (
{
hints = (
{
name = _corner.leftSerif;
origin = (0,3);
type = Corner;
},
{
name = _corner.rightSerif;
options = 1;
origin = (0,2);
scale = (1,0.5);
type = Corner;
}
);
layerId = m01;
partSelection = {
stemLength = 2;
stemWidth = 1;
stemAngle = 2;
topSerifLength = 1;
stemThickness = 1;
topSerifWidth = 1;
};
shapes = (
{
closed = 1;
nodes = (
(20,0,l),
(300,900,l),
(294,900,l),
(0,0,l)
);
}
);
width = 600;
},
{
associatedMasterId = m01;
hints = (
{
name = _corner.leftSerif;
origin = (0,3);
type = Corner;
},
{
name = _corner.rightSerif;
options = 1;
origin = (0,2);
scale = (1,0.5);
type = Corner;
}
);
layerId = "FD32427F-FC09-4938-9257-7B45657633AB";
name = Upright;
partSelection = {
stemLength = 2;
stemWidth = 1;
stemAngle = 1;
topSerifLength = 1;
stemThickness = 1;
topSerifWidth = 1;
};
shapes = (
{
closed = 1;
nodes = (
(20,0,l),
(150,900,l),
(144,900,l),
(0,0,l)
);
}
);
width = 600;
},
{
associatedMasterId = m01;
hints = (
{
name = _corner.leftSerif;
origin = (0,3);
type = Corner;
},
{
name = _corner.rightSerif;
options = 1;
origin = (0,2);
scale = (0.5,0.5);
type = Corner;
}
);
layerId = "AF2E0F19-1B60-4EE5-A479-968FD8456FCB";
name = "Upright Short";
partSelection = {
stemLength = 1;
stemWidth = 1;
stemAngle = 1;
topSerifLength = 1;
stemThickness = 1;
topSerifWidth = 1;
};
shapes = (
{
closed = 1;
nodes = (
(20,0,l),
(150,600,l),
(144,600,l),
(0,0,l)
);
}
);
width = 600;
},
{
associatedMasterId = m01;
hints = (
{
name = _corner.leftSerif;
origin = (0,3);
type = Corner;
},
{
name = _corner.rightSerif;
options = 1;
origin = (0,2);
scale = (1,1.5);
type = Corner;
}
);
layerId = "902356E4-1F1B-46EF-ADDD-3DB093914AC1";
name = "Big Serif";
partSelection = {
stemLength = 2;
stemWidth = 1;
stemAngle = 2;
topSerifLength = 2;
stemThickness = 1;
topSerifWidth = 1;
};
shapes = (
{
closed = 1;
nodes = (
(20,0,l),
(300,900,l),
(294,900,l),
(0,0,l)
);
}
);
width = 600;
},
{
associatedMasterId = m01;
hints = (
{
name = _corner.leftSerif;
origin = (0,3);
type = Corner;
},
{
name = _corner.rightSerif;
options = 1;
origin = (0,2);
scale = (1,1.5);
type = Corner;
}
);
layerId = "357F620B-70BA-47B6-8952-31725386BEF3";
name = "Upright Big Serif";
partSelection = {
stemLength = 2;
stemWidth = 1;
stemAngle = 1;
topSerifLength = 2;
stemThickness = 1;
topSerifWidth = 1;
};
shapes = (
{
closed = 1;
nodes = (
(20,0,l),
(150,900,l),
(144,900,l),
(0,0,l)
);
}
);
width = 600;
},
{
associatedMasterId = m01;
hints = (
{
name = _corner.leftSerif;
origin = (0,3);
type = Corner;
},
{
name = _corner.rightSerif;
options = 1;
origin = (0,2);
scale = (1,0.5);
type = Corner;
}
);
layerId = "A63AB54F-A03C-4418-9052-3E475C861B4B";
name = Thickened;
partSelection = {
stemLength = 2;
stemWidth = 1;
stemAngle = 2;
topSerifLength = 1;
stemThickness = 2;
topSerifWidth = 1;
};
shapes = (
{
closed = 1;
nodes = (
(30,0,l),
(310,900,l),
(285,900,l),
(0,0,l)
);
}
);
width = 600;
},
{
associatedMasterId = m01;
hints = (
{
name = _corner.leftSerif;
origin = (0,3);
type = Corner;
},
{
name = _corner.rightSerif;
options = 1;
origin = (0,2);
scale = (3,0.75);
type = Corner;
}
);
layerId = "A9D99E32-4A81-4AF2-9B35-EB9D673D2D96";
name = "Wide Serif";
partSelection = {
stemLength = 2;
stemWidth = 1;
stemAngle = 2;
topSerifLength = 1;
stemThickness = 1;
topSerifWidth = 2;
};
shapes = (
{
closed = 1;
nodes = (
(20,0,l),
(300,900,l),
(294,900,l),
(0,0,l)
);
}
);
width = 600;
}
);
partsSettings = (
{
bottomValue = 0;
name = stemLength;
topValue = 100;
},
{
bottomValue = 0;
name = stemWidth;
topValue = 100;
},
{
bottomValue = -100;
name = stemAngle;
topValue = 0;
},
{
bottomValue = 0;
name = topSerifLength;
topValue = 100;
},
{
bottomValue = 0;
name = stemThickness;
topValue = 100;
},
{
bottomValue = 0;
name = topSerifWidth;
topValue = 100;
}
);
},
{
export = 0;
glyphname = _part.stemNeue.001;
lastChange = "2023-07-24 06:58:30 +0000";
layers = (
{
layerId = m01;
partSelection = {
length = 2;
bottomStress = 1;
};
shapes = (
{
closed = 1;
nodes = (
(110,0,l),
(110,5,l),
(60,5,o),
(16.5,32,o),
(65,174,cs),
(304.5,877.5,l),
(298.5,877.5,l),
(48,175.5,ls),
(-2.5,34.5,o),
(-50,5,o),
(-100,5,c),
(-100,0,l)
);
}
);
width = 450;
},
{
associatedMasterId = m01;
attr = {
coordinates = (
110,
100
);
};
layerId = "D760C6AE-0FD8-4BC6-B001-FEB11E95D73F";
name = Tall;
partSelection = {
length = 2;
bottomStress = 1;
};
shapes = (
{
closed = 1;
nodes = (
(110,0,l),
(110,25,l),
(60,25,o),
(17,32,o),
(65,174,cs),
(311.5,900,l),
(306.5,900,l),
(48,175.5,ls),
(-2.5,34.5,o),
(-50,5,o),
(-100,5,c),
(-100,0,l)
);
}
);
width = 450;
},
{
associatedMasterId = m01;
layerId = "29E2C99E-A6BF-45EB-AD38-0A019FADFEFA";
name = Short;
partSelection = {
length = 1;
bottomStress = 1;
};
shapes = (
{
closed = 1;
nodes = (
(110,0,l),
(110,5,l),
(60,5,o),
(17,31.5,o),
(65,174,cs),
(208.5,600,l),
(202.5,600,l),
(48,175.5,ls),
(-3,35,o),
(-50,5,o),
(-100,5,c),
(-100,0,l)
);
}
);
width = 450;
},
{
associatedMasterId = m01;
layerId = "82704771-3D27-4758-9011-210403D7CAB3";
name = "Bottom Stress";
partSelection = {
length = 2;
bottomStress = 2;
};
shapes = (
{
closed = 1;
nodes = (
(110,0,l),
(110,25,l),
(60,25,o),
(16.5,32,o),
(65,174,cs),
(304.5,877.5,l),
(298.5,877.5,l),
(48,175.5,ls),
(-2.5,34.5,o),
(-50,5,o),
(-100,5,c),
(-100,0,l)
);
}
);
width = 450;
},
{
associatedMasterId = m01;
attr = {
coordinates = (
110,
0
);
};
layerId = "EB823437-94B4-4460-AA8E-FD51F1632175";
name = "{110} Jul 23, 23 at 20:34";
partSelection = {
length = 2;
bottomStress = 1;
};
shapes = (
{
closed = 1;
nodes = (
(110,0,l),
(110,5,l),
(60,5,o),
(17,32,o),
(65,174,cs),
(311.5,900,l),
(306.5,900,l),
(48,175.5,ls),
(-2.5,34.5,o),
(-50,5,o),
(-100,5,c),
(-100,0,l)
);
}
);
width = 450;
}
);
partsSettings = (
{
bottomValue = 0;
name = length;
topValue = 100;
},
{
bottomValue = 0;
name = bottomStress;
topValue = 100;
}
);
},
{
export = 0;
glyphname = _part.stemNeue.002;
lastChange = "2023-07-24 03:57:24 +0000";
layers = (
{
layerId = m01;
partSelection = {
length = 2;
bottomStress = 1;
};
shapes = (
{
closed = 1;
nodes = (
(48,175.5,ls),
(-2.5,33,o),
(-50,5,o),
(-100,5,c),
(-100,0,l),
(110,0,l),
(110,5,l),
(60,5,o),
(16.5,32,o),
(65,174,cs),
(304.5,877.5,l),
(242.5,877.5,l),
(242.5,872.5,l),
(248,872.5,ls),
(284.5,872.5,o),
(282,832,o),
(262.5,777.5,cs)
);
}
